<?xml version="1.0" encoding="UTF-8" standalone="no"?>
<!DOCTYPE svg PUBLIC "-//W3C//DTD SVG 1.1//EN"
 "http://www.w3.org/Graphics/SVG/1.1/DTD/svg11.dtd">
<!-- Generated by graphviz version 2.38.0 (20140413.2041)
 -->
<!-- Title: snakemake_dag Pages: 1 -->
<svg width="340pt" height="548pt"
 viewBox="0.00 0.00 340.27 548.00" xmlns="http://www.w3.org/2000/svg" xmlns:xlink="http://www.w3.org/1999/xlink">
<g id="graph0" class="graph" transform="scale(1 1) rotate(0) translate(4 544)">
<title>snakemake_dag</title>
<polygon fill="white" stroke="none" points="-4,4 -4,-544 336.266,-544 336.266,4 -4,4"/>
<!-- 0 -->
<g id="node1" class="node"><title>0</title>
<path fill="none" stroke="#d88d56" stroke-width="2" d="M99.7663,-36C99.7663,-36 69.7663,-36 69.7663,-36 63.7663,-36 57.7663,-30 57.7663,-24 57.7663,-24 57.7663,-12 57.7663,-12 57.7663,-6 63.7663,-0 69.7663,-0 69.7663,-0 99.7663,-0 99.7663,-0 105.766,-0 111.766,-6 111.766,-12 111.766,-12 111.766,-24 111.766,-24 111.766,-30 105.766,-36 99.7663,-36"/>
<text text-anchor="middle" x="84.7663" y="-15.5" font-family="sans" font-size="10.00">PAQ_all</text>
</g>
<!-- 1 -->
<g id="node2" class="node"><title>1</title>
<path fill="none" stroke="#56d873" stroke-width="2" d="M146.766,-252C146.766,-252 30.7663,-252 30.7663,-252 24.7663,-252 18.7663,-246 18.7663,-240 18.7663,-240 18.7663,-228 18.7663,-228 18.7663,-222 24.7663,-216 30.7663,-216 30.7663,-216 146.766,-216 146.766,-216 152.766,-216 158.766,-222 158.766,-228 158.766,-228 158.766,-240 158.766,-240 158.766,-246 152.766,-252 146.766,-252"/>
<text text-anchor="middle" x="88.7663" y="-231.5" font-family="sans" font-size="10.00">PAQ_filter_on_expression</text>
</g>
<!-- 1&#45;&gt;0 -->
<g id="edge1" class="edge"><title>1&#45;&gt;0</title>
<path fill="none" stroke="grey" stroke-width="2" d="M72.3028,-215.919C64.1125,-206.218 55.0627,-193.366 50.7663,-180 44.6062,-160.836 53.7321,-82.3724 56.7663,-72 59.4411,-62.8563 63.7835,-53.4746 68.2588,-45.1944"/>
<polygon fill="grey" stroke="grey" stroke-width="2" points="71.3694,-46.8052 73.2862,-36.3852 65.2897,-43.3355 71.3694,-46.8052"/>
</g>
<!-- 6 -->
<g id="node7" class="node"><title>6</title>
<path fill="none" stroke="#5692d8" stroke-width="2" d="M219.766,-180C219.766,-180 71.7663,-180 71.7663,-180 65.7663,-180 59.7663,-174 59.7663,-168 59.7663,-168 59.7663,-156 59.7663,-156 59.7663,-150 65.7663,-144 71.7663,-144 71.7663,-144 219.766,-144 219.766,-144 225.766,-144 231.766,-150 231.766,-156 231.766,-156 231.766,-168 231.766,-168 231.766,-174 225.766,-180 219.766,-180"/>
<text text-anchor="middle" x="145.766" y="-159.5" font-family="sans" font-size="10.00">weighted_average_exon_length</text>
</g>
<!-- 1&#45;&gt;6 -->
<g id="edge10" class="edge"><title>1&#45;&gt;6</title>
<path fill="none" stroke="grey" stroke-width="2" d="M102.856,-215.697C109.69,-207.305 118.023,-197.07 125.522,-187.861"/>
<polygon fill="grey" stroke="grey" stroke-width="2" points="128.238,-190.069 131.839,-180.104 122.81,-185.649 128.238,-190.069"/>
</g>
<!-- 2 -->
<g id="node3" class="node"><title>2</title>
<path fill="none" stroke="#d85656" stroke-width="2" d="M199.766,-108C199.766,-108 77.7663,-108 77.7663,-108 71.7663,-108 65.7663,-102 65.7663,-96 65.7663,-96 65.7663,-84 65.7663,-84 65.7663,-78 71.7663,-72 77.7663,-72 77.7663,-72 199.766,-72 199.766,-72 205.766,-72 211.766,-78 211.766,-84 211.766,-84 211.766,-96 211.766,-96 211.766,-102 205.766,-108 199.766,-108"/>
<text text-anchor="middle" x="138.766" y="-87.5" font-family="sans" font-size="10.00">plot_average_exon_length</text>
</g>
<!-- 2&#45;&gt;0 -->
<g id="edge2" class="edge"><title>2&#45;&gt;0</title>
<path fill="none" stroke="grey" stroke-width="2" d="M125.418,-71.6966C119.01,-63.3893 111.209,-53.2771 104.161,-44.1407"/>
<polygon fill="grey" stroke="grey" stroke-width="2" points="106.84,-41.8844 97.9611,-36.1043 101.298,-46.16 106.84,-41.8844"/>
</g>
<!-- 3 -->
<g id="node4" class="node"><title>3</title>
<path fill="none" stroke="#afd856" stroke-width="2" d="M151.266,-324C151.266,-324 26.2663,-324 26.2663,-324 20.2663,-324 14.2663,-318 14.2663,-312 14.2663,-312 14.2663,-300 14.2663,-300 14.2663,-294 20.2663,-288 26.2663,-288 26.2663,-288 151.266,-288 151.266,-288 157.266,-288 163.266,-294 163.266,-300 163.266,-300 163.266,-312 163.266,-312 163.266,-318 157.266,-324 151.266,-324"/>
<text text-anchor="middle" x="88.7663" y="-303.5" font-family="sans" font-size="10.00">PAQ_normalize_expression</text>
</g>
<!-- 3&#45;&gt;1 -->
<g id="edge4" class="edge"><title>3&#45;&gt;1</title>
<path fill="none" stroke="grey" stroke-width="2" d="M88.7663,-287.697C88.7663,-279.983 88.7663,-270.712 88.7663,-262.112"/>
<polygon fill="grey" stroke="grey" stroke-width="2" points="92.2664,-262.104 88.7663,-252.104 85.2664,-262.104 92.2664,-262.104"/>
</g>
<!-- 4 -->
<g id="node5" class="node"><title>4</title>
<path fill="none" stroke="#d8cb56" stroke-width="2" d="M320.266,-324C320.266,-324 193.266,-324 193.266,-324 187.266,-324 181.266,-318 181.266,-312 181.266,-312 181.266,-300 181.266,-300 181.266,-294 187.266,-288 193.266,-288 193.266,-288 320.266,-288 320.266,-288 326.266,-288 332.266,-294 332.266,-300 332.266,-300 332.266,-312 332.266,-312 332.266,-318 326.266,-324 320.266,-324"/>
<text text-anchor="middle" x="256.766" y="-303.5" font-family="sans" font-size="10.00">PAQ_relative_pas_positions</text>
</g>
<!-- 4&#45;&gt;1 -->
<g id="edge3" class="edge"><title>4&#45;&gt;1</title>
<path fill="none" stroke="grey" stroke-width="2" d="M215.669,-287.876C192.6,-278.264 163.63,-266.193 139.196,-256.013"/>
<polygon fill="grey" stroke="grey" stroke-width="2" points="140.307,-252.684 129.73,-252.068 137.615,-259.145 140.307,-252.684"/>
</g>
<!-- 5 -->
<g id="node6" class="node"><title>5</title>
<path fill="none" stroke="#70d856" stroke-width="2" d="M147.266,-396C147.266,-396 30.2663,-396 30.2663,-396 24.2663,-396 18.2663,-390 18.2663,-384 18.2663,-384 18.2663,-372 18.2663,-372 18.2663,-366 24.2663,-360 30.2663,-360 30.2663,-360 147.266,-360 147.266,-360 153.266,-360 159.266,-366 159.266,-372 159.266,-372 159.266,-384 159.266,-384 159.266,-390 153.266,-396 147.266,-396"/>
<text text-anchor="middle" x="88.7663" y="-375.5" font-family="sans" font-size="10.00">PAQ_infer_relative_usage</text>
</g>
<!-- 5&#45;&gt;1 -->
<g id="edge5" class="edge"><title>5&#45;&gt;1</title>
<path fill="none" stroke="grey" stroke-width="2" d="M45.2048,-359.866C29.9056,-351.488 14.3926,-339.743 5.76632,-324 -1.92211,-309.968 -1.92211,-302.032 5.76632,-288 12.7078,-275.332 24.1086,-265.252 36.2689,-257.433"/>
<polygon fill="grey" stroke="grey" stroke-width="2" points="38.3887,-260.245 45.2048,-252.134 34.8182,-254.224 38.3887,-260.245"/>
</g>
<!-- 5&#45;&gt;3 -->
<g id="edge7" class="edge"><title>5&#45;&gt;3</title>
<path fill="none" stroke="grey" stroke-width="2" d="M88.7663,-359.697C88.7663,-351.983 88.7663,-342.712 88.7663,-334.112"/>
<polygon fill="grey" stroke="grey" stroke-width="2" points="92.2664,-334.104 88.7663,-324.104 85.2664,-334.104 92.2664,-334.104"/>
</g>
<!-- 5&#45;&gt;4 -->
<g id="edge8" class="edge"><title>5&#45;&gt;4</title>
<path fill="none" stroke="grey" stroke-width="2" d="M129.864,-359.876C152.932,-350.264 181.902,-338.193 206.336,-328.013"/>
<polygon fill="grey" stroke="grey" stroke-width="2" points="207.918,-331.145 215.802,-324.068 205.225,-324.684 207.918,-331.145"/>
</g>
<!-- 6&#45;&gt;2 -->
<g id="edge6" class="edge"><title>6&#45;&gt;2</title>
<path fill="none" stroke="grey" stroke-width="2" d="M144.036,-143.697C143.265,-135.983 142.338,-126.712 141.478,-118.112"/>
<polygon fill="grey" stroke="grey" stroke-width="2" points="144.955,-117.706 140.477,-108.104 137.989,-118.403 144.955,-117.706"/>
</g>
<!-- 7 -->
<g id="node8" class="node"><title>7</title>
<path fill="none" stroke="#56c9d8" stroke-width="2" d="M140.766,-468C140.766,-468 36.7663,-468 36.7663,-468 30.7663,-468 24.7663,-462 24.7663,-456 24.7663,-456 24.7663,-444 24.7663,-444 24.7663,-438 30.7663,-432 36.7663,-432 36.7663,-432 140.766,-432 140.766,-432 146.766,-432 152.766,-438 152.766,-444 152.766,-444 152.766,-456 152.766,-456 152.766,-462 146.766,-468 140.766,-468"/>
<text text-anchor="middle" x="88.7663" y="-447.5" font-family="sans" font-size="10.00">PAQ_create_coverages</text>
</g>
<!-- 7&#45;&gt;5 -->
<g id="edge9" class="edge"><title>7&#45;&gt;5</title>
<path fill="none" stroke="grey" stroke-width="2" d="M88.7663,-431.697C88.7663,-423.983 88.7663,-414.712 88.7663,-406.112"/>
<polygon fill="grey" stroke="grey" stroke-width="2" points="92.2664,-406.104 88.7663,-396.104 85.2664,-406.104 92.2664,-406.104"/>
</g>
<!-- 8 -->
<g id="node9" class="node"><title>8</title>
<path fill="none" stroke="#56d8a9" stroke-width="2" d="M129.766,-540C129.766,-540 47.7663,-540 47.7663,-540 41.7663,-540 35.7663,-534 35.7663,-528 35.7663,-528 35.7663,-516 35.7663,-516 35.7663,-510 41.7663,-504 47.7663,-504 47.7663,-504 129.766,-504 129.766,-504 135.766,-504 141.766,-510 141.766,-516 141.766,-516 141.766,-528 141.766,-528 141.766,-534 135.766,-540 129.766,-540"/>
<text text-anchor="middle" x="88.7663" y="-519.5" font-family="sans" font-size="10.00">PAQ_create_outdir</text>
</g>
<!-- 8&#45;&gt;7 -->
<g id="edge11" class="edge"><title>8&#45;&gt;7</title>
<path fill="none" stroke="grey" stroke-width="2" d="M88.7663,-503.697C88.7663,-495.983 88.7663,-486.712 88.7663,-478.112"/>
<polygon fill="grey" stroke="grey" stroke-width="2" points="92.2664,-478.104 88.7663,-468.104 85.2664,-478.104 92.2664,-478.104"/>
</g>
</g>
</svg>
